<svg xmlns="http://www.w3.org/2000/svg" viewBox="-5 -5 110 110"><path fill="#0277BD" d="M50 0C22.44 0 0 22.44 0 50.01S22.43 100 50 100c27.58 0 50-22.41 50-49.99s-22.41-50-50-50zm0 6.25a43.7 43.7 0 0 1 43.74 43.76 43.68 43.68 0 0 1-43.73 43.74A43.7 43.7 0 0 1 6.25 50 43.71 43.71 0 0 1 50.01 6.25zm0 18.5a3.12 3.12 0 0 0-3.13 3.12v19h-19a3.14 3.14 0 0 0-3.14 3.14 3.14 3.14 0 0 0 3.14 3.12h19v19a3.13 3.13 0 1 0 6.26 0v-19h19A3.14 3.14 0 0 0 75.27 50a3.12 3.12 0 0 0-3.14-3.13h-19v-19c0-1.73-1.4-3.13-3.12-3.13z"/></svg>
